<svg width="1024" height="1024" viewBox="0 0 1024 1024" fill="none" xmlns="http://www.w3.org/2000/svg">
  <!-- Background gradient -->
  <defs>
    <linearGradient id="bgGradient" x1="0%" y1="0%" x2="100%" y2="100%">
      <stop offset="0%" style="stop-color:#2C3E50;stop-opacity:1" />
      <stop offset="50%" style="stop-color:#34495E;stop-opacity:1" />
      <stop offset="100%" style="stop-color:#1E1E1E;stop-opacity:1" />
    </linearGradient>
    <linearGradient id="iconGradient" x1="0%" y1="0%" x2="100%" y2="100%">
      <stop offset="0%" style="stop-color:#3498DB;stop-opacity:1" />
      <stop offset="100%" style="stop-color:#9B59B6;stop-opacity:1" />
    </linearGradient>
    <filter id="shadow" x="-20%" y="-20%" width="140%" height="140%">
      <feDropShadow dx="0" dy="4" stdDeviation="8" flood-color="#000000" flood-opacity="0.3"/>
    </filter>
  </defs>
  
  <!-- Background circle -->
  <circle cx="512" cy="512" r="512" fill="url(#bgGradient)"/>
  
  <!-- Main icon container -->
  <g filter="url(#shadow)">
    <!-- Icon background -->
    <rect x="262" y="262" width="500" height="500" rx="80" fill="url(#iconGradient)"/>
    
    <!-- Video call icon -->
    <g transform="translate(512, 512)">
      <!-- Camera body -->
      <rect x="-80" y="-60" width="160" height="120" rx="20" fill="white" opacity="0.9"/>
      
      <!-- Camera lens -->
      <circle cx="0" cy="0" r="35" fill="white" opacity="0.8"/>
      <circle cx="0" cy="0" r="25" fill="url(#iconGradient)"/>
      
      <!-- Video indicator -->
      <circle cx="45" cy="-35" r="8" fill="#E74C3C"/>
      <circle cx="45" cy="-35" r="4" fill="white"/>
      
      <!-- Relief fund symbol (heart) -->
      <g transform="translate(0, 80)">
        <path d="M-15 0 C-15 -10 -5 -15 0 -10 C5 -15 15 -10 15 0 C15 10 0 20 0 20 C0 20 -15 10 -15 0 Z" fill="#E74C3C"/>
      </g>
    </g>
  </g>
  
  <!-- Decorative elements -->
  <circle cx="200" cy="200" r="4" fill="white" opacity="0.3"/>
  <circle cx="824" cy="824" r="6" fill="white" opacity="0.2"/>
  <circle cx="824" cy="200" r="3" fill="white" opacity="0.4"/>
  <circle cx="200" cy="824" r="5" fill="white" opacity="0.3"/>
</svg> 